<svg width="32" height="32" viewBox="0 0 32 32" fill="none" xmlns="http://www.w3.org/2000/svg">
<path d="M26 32H6C2.686 32 0 29.314 0 26V6C0 2.686 2.686 0 6 0H26C29.314 0 32 2.686 32 6V26C32 29.314 29.314 32 26 32Z" fill="#9F5DE2" fill-opacity="0.1"/>
<path d="M16.0004 11.3975L15.4577 10.8295L14.6587 9.99311L14.6584 9.99285C13.8879 9.18562 12.8759 8.75 11.8011 8.75C10.7273 8.75 9.71414 9.18567 8.94375 9.99279L16.0004 11.3975ZM16.0004 11.3975L16.5427 10.8291M16.0004 11.3975L16.5427 10.8291M16.5427 10.8291L17.3413 9.99202C18.1118 9.18575 19.1251 8.75 20.1989 8.75C21.2727 8.75 22.2859 9.18567 23.0563 9.99279L16.5427 10.8291ZM8.94344 16.0552L8.9436 16.0553L16 23.4459L23.0564 16.0553L23.5989 16.5733L23.0564 16.0553C24.6478 14.3887 24.648 11.6609 23.0563 9.99285L8.94344 16.0552ZM8.94344 16.0552C7.35237 14.3898 7.35192 11.661 8.94369 9.99285L8.94344 16.0552Z" stroke="#9F5DE2" stroke-width="1.5"/>
</svg>
